<svg version="1" xmlns="http://www.w3.org/2000/svg" width="933.333" height="933.333" viewBox="0 0 700.000000 700.000000"><path d="M322.5.6c-24.6 2.5-49.8 7-68 12.3C153.8 41.8 71.9 113.1 29.6 208.5 19.4 231.3 12 254.6 7 279 1.4 306.8.6 315.7.6 350s.8 43.2 6.4 71c22.4 110.1 97.8 203.4 201.5 249.4 30.1 13.4 61.8 22.3 97.5 27.3 17.9 2.5 70.1 2.5 88 0 73.4-10.3 134.3-38.2 189-86.3 55.6-49 95.1-117.3 110-190.4 5.6-27.8 6.4-36.7 6.4-71s-.8-43.2-6.4-71C670.6 168.9 595.2 75.6 491.5 29.6c-30-13.4-62.2-22.4-97-27.2-11.4-1.5-61.7-2.8-72-1.8zm250.2 97.1c7.7 3.6 16 22.2 17 38.3 1.2 19-4.3 41.9-16.7 69.1-5.1 11.1-10.4 20.8-68.8 124.9l-30 53.5 5.8 3.8c12.1 7.8 21.9 22.2 22.8 33.4.9 11.1-3.6 13.1-25 10.8-7.8-.8-17.7-1.5-21.9-1.5h-7.5l-17.8 35.7c-18.1 36.2-40 82.1-53.7 112.2-8.3 18.3-12.1 23.5-18.2 24.6-7.8 1.5-13.7-3.8-21.2-18.9-9.5-19.2-9.7-35-.8-66.6 3.9-13.9 16.9-46.8 28.7-72.4l3.7-7.8-3.3.6c-1.8.3-19.5 2.8-39.3 5.6-41.5 5.8-66.1 8.6-82.6 9.6l-11.5.6-18.4 39.2c-10.1 21.5-25.7 55.3-34.7 75.1-9 19.8-17.4 37.6-18.8 39.6-4 6.1-12.3 8.6-18.3 5.5-5-2.6-10-9.4-15-20.1-8.1-17.5-7.1-40.9 3.2-71.1 5.7-17 7.7-22 20.6-53.5 6.1-14.6 11-27 11-27.6 0-.6-2.5-2.7-5.5-4.6-15.5-10.3-26.8-29.3-21-35.1 4-3.9 16.5-4.2 41-1l4 .5 23.2-46.3c45.6-91 94.4-179 124.4-224.6 8.5-12.8 11.4-16.3 16.3-19.6 11.7-7.9 24.5 3.3 29.2 25.6 2.3 10.6 1.4 29.8-2.1 45.2-6.4 28.4-11.4 38.8-66.3 138.6-22.5 41-40.6 74.6-40.2 74.8.8.3 31.8-4.8 76.5-12.7 15.4-2.7 34.6-5.7 42.7-6.7l14.7-1.7 8.7-17.1c59.8-117.1 131.8-240.2 148.7-254 7.1-5.8 10.7-6.7 16.4-3.9zm-76 431.1c10.6 5.5 15.5 13.9 16.1 27.9.5 9.6-1.5 18.9-5.8 27.4-4.9 9.4-15.5 19.3-26.4 24.2-5.9 2.7-16.8 3.8-22.7 2.3-9.7-2.6-18.2-11.3-21.5-22.1-1.8-6.2-1.8-18.8.1-25.1 4.6-15.7 17.8-30 32.5-35.4 7.6-2.8 21.6-2.4 27.7.8z"/></svg>